<?xml version="1.0" encoding="UTF-8" standalone="no"?>
<!-- Uploaded to: SVG Repo, www.svgrepo.com, Generator: SVG Repo Mixer Tools -->

<svg
   width="800px"
   height="800px"
   viewBox="0 0 192 192"
   fill="none"
   version="1.1"
   id="svg2"
   sodipodi:docname="discord.svg"
   inkscape:version="1.3.2 (091e20e, 2023-11-25, custom)"
   xmlns:inkscape="http://www.inkscape.org/namespaces/inkscape"
   xmlns:sodipodi="http://sodipodi.sourceforge.net/DTD/sodipodi-0.dtd"
   xmlns="http://www.w3.org/2000/svg"
   xmlns:svg="http://www.w3.org/2000/svg">
  <defs
     id="defs2" />
  <sodipodi:namedview
     id="namedview2"
     pagecolor="#ffffff"
     bordercolor="#999999"
     borderopacity="1"
     inkscape:showpageshadow="2"
     inkscape:pageopacity="0"
     inkscape:pagecheckerboard="0"
     inkscape:deskcolor="#d1d1d1"
     inkscape:zoom="0.93875"
     inkscape:cx="400"
     inkscape:cy="400"
     inkscape:window-width="1920"
     inkscape:window-height="986"
     inkscape:window-x="-11"
     inkscape:window-y="-11"
     inkscape:window-maximized="1"
     inkscape:current-layer="svg2" />
  <path
     stroke="#000000"
     stroke-linecap="round"
     stroke-linejoin="round"
     stroke-width="12"
     d="m68 138-8 16c-10.19-4.246-20.742-8.492-31.96-15.8-3.912-2.549-6.284-6.88-6.378-11.548-.488-23.964 5.134-48.056 19.369-73.528 1.863-3.334 4.967-5.778 8.567-7.056C58.186 43.02 64.016 40.664 74 39l6 11s6-2 16-2 16 2 16 2l6-11c9.984 1.664 15.814 4.02 24.402 7.068 3.6 1.278 6.704 3.722 8.567 7.056 14.235 25.472 19.857 49.564 19.37 73.528-.095 4.668-2.467 8.999-6.379 11.548-11.218 7.308-21.769 11.554-31.96 15.8l-8-16m-68-8s20 10 40 10 40-10 40-10"
     id="path1"
     style="stroke:#ffffff;stroke-opacity:1" />
  <ellipse
     cx="71"
     cy="101"
     fill="#000000"
     rx="13"
     ry="15"
     id="ellipse1"
     style="fill:#ffffff;fill-opacity:1" />
  <ellipse
     cx="121"
     cy="101"
     fill="#000000"
     rx="13"
     ry="15"
     id="ellipse2"
     style="stroke:#ffffff;stroke-opacity:1;fill:#ffffff;fill-opacity:1" />
</svg>
